<mxfile host="app.diagrams.net" modified="2023-12-06T16:34:23.156Z" agent="Mozilla/5.0 (Windows NT 10.0; Win64; x64) AppleWebKit/537.36 (KHTML, like Gecko) Chrome/119.0.0.0 Safari/537.36" etag="8ZS4ip6ZPVacQtCcaRKK" version="22.1.6" type="github" pages="2">
  <diagram name="Red" id="ABi04Mv7w6OP0_eSHl25">
    <mxGraphModel dx="3827" dy="2786" grid="1" gridSize="10" guides="1" tooltips="1" connect="1" arrows="1" fold="1" page="1" pageScale="1" pageWidth="827" pageHeight="1169" math="0" shadow="0">
      <root>
        <mxCell id="0" />
        <mxCell id="1" parent="0" />
        <mxCell id="1jA0onxi-LNYjHY15BIs-1" value="&lt;b&gt;&lt;font style=&quot;font-size: 29px;&quot;&gt;START&lt;/font&gt;&lt;/b&gt;" style="html=1;overflow=block;blockSpacing=1;whiteSpace=wrap;rhombus;fontSize=16.7;fontColor=#333333;align=center;spacing=3.8;strokeColor=#000000;strokeOpacity=100;rounded=1;absoluteArcSize=1;arcSize=9;strokeWidth=7;lucidId=apRTezGJ.Ge_;" vertex="1" parent="1">
          <mxGeometry x="-180" y="210" width="285" height="180" as="geometry" />
        </mxCell>
        <mxCell id="1jA0onxi-LNYjHY15BIs-2" value="" style="html=1;overflow=block;blockSpacing=1;whiteSpace=wrap;fontSize=13;align=center;spacing=9;strokeColor=#5e5e5e;strokeOpacity=100;rounded=1;absoluteArcSize=1;arcSize=9;strokeWidth=3;lucidId=AsRTUNkiQdwA;" vertex="1" parent="1">
          <mxGeometry x="390" y="-30" width="285" height="180" as="geometry" />
        </mxCell>
        <mxCell id="1jA0onxi-LNYjHY15BIs-3" value="0" style="html=1;overflow=block;blockSpacing=1;whiteSpace=wrap;fontSize=23.3;fontColor=#333333;fontStyle=1;align=center;spacing=3.8;strokeColor=#5e5e5e;strokeOpacity=100;rounded=1;absoluteArcSize=1;arcSize=9;strokeWidth=3;lucidId=AsRTebE7L5cj;" vertex="1" parent="1">
          <mxGeometry x="390" y="-30" width="90" height="90" as="geometry" />
        </mxCell>
        <mxCell id="1jA0onxi-LNYjHY15BIs-4" value="&lt;font style=&quot;font-size: 23px;&quot;&gt;&lt;b&gt;5&lt;/b&gt;&lt;/font&gt;" style="html=1;overflow=block;blockSpacing=1;whiteSpace=wrap;fontSize=13;align=center;spacing=3.8;strokeColor=#5e5e5e;strokeOpacity=100;rounded=1;absoluteArcSize=1;arcSize=9;strokeWidth=3;lucidId=AsRTqZ3c5ihd;" vertex="1" parent="1">
          <mxGeometry x="390" y="60" width="90" height="90" as="geometry" />
        </mxCell>
        <mxCell id="1jA0onxi-LNYjHY15BIs-5" value="12" style="html=1;overflow=block;blockSpacing=1;whiteSpace=wrap;fontSize=23.3;fontColor=#333333;fontStyle=1;align=center;spacing=3.8;strokeColor=#5e5e5e;strokeOpacity=100;rounded=1;absoluteArcSize=1;arcSize=9;strokeWidth=3;lucidId=AsRTt.hy5vhE;" vertex="1" parent="1">
          <mxGeometry x="585" y="-30" width="90" height="90" as="geometry" />
        </mxCell>
        <mxCell id="1jA0onxi-LNYjHY15BIs-6" value="&lt;font style=&quot;font-size: 23px;&quot;&gt;&lt;b&gt;17&lt;/b&gt;&lt;/font&gt;" style="html=1;overflow=block;blockSpacing=1;whiteSpace=wrap;fontSize=13;align=center;spacing=3.8;strokeColor=#5e5e5e;strokeOpacity=100;rounded=1;absoluteArcSize=1;arcSize=9;strokeWidth=3;lucidId=AsRTdtKpL~06;" vertex="1" parent="1">
          <mxGeometry x="585" y="60" width="90" height="90" as="geometry" />
        </mxCell>
        <mxCell id="1jA0onxi-LNYjHY15BIs-7" value="12" style="html=1;overflow=block;blockSpacing=1;whiteSpace=wrap;fontSize=23.3;fontColor=#333333;fontStyle=1;align=center;spacing=3.8;strokeOpacity=0;fillOpacity=0;rounded=1;absoluteArcSize=1;arcSize=9;fillColor=#ffffff;strokeWidth=2.3;lucidId=yvRTOkLabk82;" vertex="1" parent="1">
          <mxGeometry x="480" y="90" width="105" height="53" as="geometry" />
        </mxCell>
        <mxCell id="1jA0onxi-LNYjHY15BIs-8" value="&lt;font style=&quot;font-size: 32px;&quot;&gt;A&lt;/font&gt;" style="html=1;overflow=block;blockSpacing=1;whiteSpace=wrap;fontSize=23.3;fontColor=#333333;fontStyle=1;align=center;spacing=3.8;strokeOpacity=0;fillOpacity=0;rounded=1;absoluteArcSize=1;arcSize=9;fillColor=#ffffff;strokeWidth=2.3;lucidId=JvRTEd0kzCuP;" vertex="1" parent="1">
          <mxGeometry x="488" y="11" width="90" height="64" as="geometry" />
        </mxCell>
        <mxCell id="1jA0onxi-LNYjHY15BIs-9" value="" style="html=1;overflow=block;blockSpacing=1;whiteSpace=wrap;fontSize=13;align=center;spacing=9;strokeColor=#5e5e5e;strokeOpacity=100;rounded=1;absoluteArcSize=1;arcSize=9;strokeWidth=3;lucidId=SwRT_QPflahT;" vertex="1" parent="1">
          <mxGeometry x="270" y="210" width="285" height="180" as="geometry" />
        </mxCell>
        <mxCell id="1jA0onxi-LNYjHY15BIs-10" value="0" style="html=1;overflow=block;blockSpacing=1;whiteSpace=wrap;fontSize=23.3;fontColor=#333333;fontStyle=1;align=center;spacing=3.8;strokeColor=#5e5e5e;strokeOpacity=100;rounded=1;absoluteArcSize=1;arcSize=9;strokeWidth=3;lucidId=SwRTzBEkWqTJ;" vertex="1" parent="1">
          <mxGeometry x="270" y="210" width="90" height="90" as="geometry" />
        </mxCell>
        <mxCell id="1jA0onxi-LNYjHY15BIs-11" value="&lt;font style=&quot;font-size: 23px;&quot;&gt;&lt;b&gt;0&lt;/b&gt;&lt;/font&gt;" style="html=1;overflow=block;blockSpacing=1;whiteSpace=wrap;fontSize=13;align=center;spacing=3.8;strokeColor=#5e5e5e;strokeOpacity=100;rounded=1;absoluteArcSize=1;arcSize=9;strokeWidth=3;lucidId=SwRTy7p2dBQ1;" vertex="1" parent="1">
          <mxGeometry x="270" y="300" width="90" height="90" as="geometry" />
        </mxCell>
        <mxCell id="1jA0onxi-LNYjHY15BIs-12" value="8" style="html=1;overflow=block;blockSpacing=1;whiteSpace=wrap;fontSize=23.3;fontColor=#333333;fontStyle=1;align=center;spacing=3.8;strokeColor=#5e5e5e;strokeOpacity=100;rounded=1;absoluteArcSize=1;arcSize=9;strokeWidth=3;lucidId=SwRT0PcjH0Tp;" vertex="1" parent="1">
          <mxGeometry x="465" y="210" width="90" height="90" as="geometry" />
        </mxCell>
        <mxCell id="1jA0onxi-LNYjHY15BIs-13" value="&lt;font style=&quot;font-size: 23px;&quot;&gt;&lt;b&gt;8&lt;/b&gt;&lt;/font&gt;" style="html=1;overflow=block;blockSpacing=1;whiteSpace=wrap;fontSize=13;align=center;spacing=3.8;strokeColor=#5e5e5e;strokeOpacity=100;rounded=1;absoluteArcSize=1;arcSize=9;strokeWidth=3;lucidId=SwRT8MN72VVl;" vertex="1" parent="1">
          <mxGeometry x="465" y="300" width="90" height="90" as="geometry" />
        </mxCell>
        <mxCell id="1jA0onxi-LNYjHY15BIs-14" value="8" style="html=1;overflow=block;blockSpacing=1;whiteSpace=wrap;fontSize=23.3;fontColor=#333333;fontStyle=1;align=center;spacing=3.8;strokeOpacity=0;fillOpacity=0;rounded=1;absoluteArcSize=1;arcSize=9;fillColor=#ffffff;strokeWidth=2.3;lucidId=SwRT2yz02kda;" vertex="1" parent="1">
          <mxGeometry x="360" y="315" width="105" height="53" as="geometry" />
        </mxCell>
        <mxCell id="1jA0onxi-LNYjHY15BIs-15" value="&lt;font style=&quot;font-size: 32px;&quot;&gt;C&lt;/font&gt;" style="html=1;overflow=block;blockSpacing=1;whiteSpace=wrap;fontSize=23.3;fontColor=#333333;fontStyle=1;align=center;spacing=3.8;strokeOpacity=0;fillOpacity=0;rounded=1;absoluteArcSize=1;arcSize=9;fillColor=#ffffff;strokeWidth=2.3;lucidId=SwRTIYhmjOOx;" vertex="1" parent="1">
          <mxGeometry x="368" y="236" width="90" height="64" as="geometry" />
        </mxCell>
        <mxCell id="1jA0onxi-LNYjHY15BIs-16" value="" style="html=1;jettySize=18;whiteSpace=wrap;fontSize=13;strokeColor=#5E5E5E;strokeWidth=2.3;rounded=1;arcSize=12;edgeStyle=orthogonalEdgeStyle;startArrow=none;endArrow=block;endFill=1;entryX=-0.005;entryY=0.508;entryPerimeter=0;lucidId=CxRT5.IT_HnB;" edge="1" parent="1" target="1jA0onxi-LNYjHY15BIs-2">
          <mxGeometry width="100" height="100" relative="1" as="geometry">
            <Array as="points">
              <mxPoint x="180" y="61" />
            </Array>
            <mxPoint x="180" y="300" as="sourcePoint" />
          </mxGeometry>
        </mxCell>
        <mxCell id="1jA0onxi-LNYjHY15BIs-17" value="" style="html=1;overflow=block;blockSpacing=1;whiteSpace=wrap;fontSize=13;align=center;spacing=9;strokeColor=#5e5e5e;strokeOpacity=100;rounded=1;absoluteArcSize=1;arcSize=9;strokeWidth=3;lucidId=bzRTYDY3.WiU;" vertex="1" parent="1">
          <mxGeometry x="645" y="210" width="285" height="180" as="geometry" />
        </mxCell>
        <mxCell id="1jA0onxi-LNYjHY15BIs-18" value="8" style="html=1;overflow=block;blockSpacing=1;whiteSpace=wrap;fontSize=23.3;fontColor=#333333;fontStyle=1;align=center;spacing=3.8;strokeColor=#5e5e5e;strokeOpacity=100;rounded=1;absoluteArcSize=1;arcSize=9;strokeWidth=3;lucidId=bzRT8JI5qos.;" vertex="1" parent="1">
          <mxGeometry x="645" y="210" width="90" height="90" as="geometry" />
        </mxCell>
        <mxCell id="1jA0onxi-LNYjHY15BIs-19" value="&lt;font style=&quot;font-size: 23px;&quot;&gt;&lt;b&gt;8&lt;/b&gt;&lt;/font&gt;" style="html=1;overflow=block;blockSpacing=1;whiteSpace=wrap;fontSize=13;align=center;spacing=3.8;strokeColor=#5e5e5e;strokeOpacity=100;rounded=1;absoluteArcSize=1;arcSize=9;strokeWidth=3;lucidId=bzRTyQ3_y796;" vertex="1" parent="1">
          <mxGeometry x="645" y="300" width="90" height="90" as="geometry" />
        </mxCell>
        <mxCell id="1jA0onxi-LNYjHY15BIs-20" value="12" style="html=1;overflow=block;blockSpacing=1;whiteSpace=wrap;fontSize=23.3;fontColor=#333333;fontStyle=1;align=center;spacing=3.8;strokeColor=#5e5e5e;strokeOpacity=100;rounded=1;absoluteArcSize=1;arcSize=9;strokeWidth=3;lucidId=bzRTRm0zG-hj;" vertex="1" parent="1">
          <mxGeometry x="840" y="210" width="90" height="90" as="geometry" />
        </mxCell>
        <mxCell id="1jA0onxi-LNYjHY15BIs-21" value="&lt;font style=&quot;font-size: 23px;&quot;&gt;&lt;b&gt;12&lt;/b&gt;&lt;/font&gt;" style="html=1;overflow=block;blockSpacing=1;whiteSpace=wrap;fontSize=13;align=center;spacing=3.8;strokeColor=#5e5e5e;strokeOpacity=100;rounded=1;absoluteArcSize=1;arcSize=9;strokeWidth=3;lucidId=bzRTlyy0I4E-;" vertex="1" parent="1">
          <mxGeometry x="840" y="300" width="90" height="90" as="geometry" />
        </mxCell>
        <mxCell id="1jA0onxi-LNYjHY15BIs-22" value="4" style="html=1;overflow=block;blockSpacing=1;whiteSpace=wrap;fontSize=23.3;fontColor=#333333;fontStyle=1;align=center;spacing=3.8;strokeOpacity=0;fillOpacity=0;rounded=1;absoluteArcSize=1;arcSize=9;fillColor=#ffffff;strokeWidth=2.3;lucidId=bzRTkPJ8rPpG;" vertex="1" parent="1">
          <mxGeometry x="735" y="315" width="105" height="53" as="geometry" />
        </mxCell>
        <mxCell id="1jA0onxi-LNYjHY15BIs-23" value="&lt;font style=&quot;font-size: 32px;&quot;&gt;D&lt;/font&gt;" style="html=1;overflow=block;blockSpacing=1;whiteSpace=wrap;fontSize=23.3;fontColor=#333333;fontStyle=1;align=center;spacing=3.8;strokeOpacity=0;fillOpacity=0;rounded=1;absoluteArcSize=1;arcSize=9;fillColor=#ffffff;strokeWidth=2.3;lucidId=bzRTpqheTeWD;" vertex="1" parent="1">
          <mxGeometry x="743" y="236" width="90" height="64" as="geometry" />
        </mxCell>
        <mxCell id="1jA0onxi-LNYjHY15BIs-24" value="" style="html=1;overflow=block;blockSpacing=1;whiteSpace=wrap;fontSize=13;align=center;spacing=9;strokeColor=#5e5e5e;strokeOpacity=100;rounded=1;absoluteArcSize=1;arcSize=9;strokeWidth=3;lucidId=AzRT2ArTdRl3;" vertex="1" parent="1">
          <mxGeometry x="1020" y="210" width="285" height="180" as="geometry" />
        </mxCell>
        <mxCell id="1jA0onxi-LNYjHY15BIs-25" value="12" style="html=1;overflow=block;blockSpacing=1;whiteSpace=wrap;fontSize=23.3;fontColor=#333333;fontStyle=1;align=center;spacing=3.8;strokeColor=#5e5e5e;strokeOpacity=100;rounded=1;absoluteArcSize=1;arcSize=9;strokeWidth=3;lucidId=AzRTWyrZ866C;" vertex="1" parent="1">
          <mxGeometry x="1020" y="210" width="90" height="90" as="geometry" />
        </mxCell>
        <mxCell id="1jA0onxi-LNYjHY15BIs-26" value="&lt;font style=&quot;font-size: 23px;&quot;&gt;&lt;b&gt;12&lt;/b&gt;&lt;/font&gt;" style="html=1;overflow=block;blockSpacing=1;whiteSpace=wrap;fontSize=13;align=center;spacing=3.8;strokeColor=#5e5e5e;strokeOpacity=100;rounded=1;absoluteArcSize=1;arcSize=9;strokeWidth=3;lucidId=AzRTmKbXMegY;" vertex="1" parent="1">
          <mxGeometry x="1020" y="300" width="90" height="90" as="geometry" />
        </mxCell>
        <mxCell id="1jA0onxi-LNYjHY15BIs-27" value="17" style="html=1;overflow=block;blockSpacing=1;whiteSpace=wrap;fontSize=23.3;fontColor=#333333;fontStyle=1;align=center;spacing=3.8;strokeColor=#5e5e5e;strokeOpacity=100;rounded=1;absoluteArcSize=1;arcSize=9;strokeWidth=3;lucidId=AzRTmM~o5qg7;" vertex="1" parent="1">
          <mxGeometry x="1215" y="210" width="90" height="90" as="geometry" />
        </mxCell>
        <mxCell id="1jA0onxi-LNYjHY15BIs-28" value="&lt;font style=&quot;font-size: 23px;&quot;&gt;&lt;b&gt;17&lt;/b&gt;&lt;/font&gt;" style="html=1;overflow=block;blockSpacing=1;whiteSpace=wrap;fontSize=13;align=center;spacing=3.8;strokeColor=#5e5e5e;strokeOpacity=100;rounded=1;absoluteArcSize=1;arcSize=9;strokeWidth=3;lucidId=AzRT2pPJbOR-;" vertex="1" parent="1">
          <mxGeometry x="1215" y="300" width="90" height="90" as="geometry" />
        </mxCell>
        <mxCell id="1jA0onxi-LNYjHY15BIs-29" value="5" style="html=1;overflow=block;blockSpacing=1;whiteSpace=wrap;fontSize=23.3;fontColor=#333333;fontStyle=1;align=center;spacing=3.8;strokeOpacity=0;fillOpacity=0;rounded=1;absoluteArcSize=1;arcSize=9;fillColor=#ffffff;strokeWidth=2.3;lucidId=AzRT0ugNrJBx;" vertex="1" parent="1">
          <mxGeometry x="1110" y="315" width="105" height="53" as="geometry" />
        </mxCell>
        <mxCell id="1jA0onxi-LNYjHY15BIs-30" value="&lt;font style=&quot;font-size: 32px;&quot;&gt;E&lt;/font&gt;" style="html=1;overflow=block;blockSpacing=1;whiteSpace=wrap;fontSize=23.3;fontColor=#333333;fontStyle=1;align=center;spacing=3.8;strokeOpacity=0;fillOpacity=0;rounded=1;absoluteArcSize=1;arcSize=9;fillColor=#ffffff;strokeWidth=2.3;lucidId=AzRT.E3255l8;" vertex="1" parent="1">
          <mxGeometry x="1118" y="236" width="90" height="64" as="geometry" />
        </mxCell>
        <mxCell id="1jA0onxi-LNYjHY15BIs-31" value="" style="html=1;jettySize=18;whiteSpace=wrap;fontSize=13;strokeColor=#000000;strokeWidth=10;rounded=1;arcSize=12;edgeStyle=orthogonalEdgeStyle;startArrow=none;endArrow=block;endFill=1;exitX=1.005;exitY=0.5;exitPerimeter=0;entryX=-0.005;entryY=0.5;entryPerimeter=0;lucidId=CART0D0T0mP_;" edge="1" parent="1" source="1jA0onxi-LNYjHY15BIs-9" target="1jA0onxi-LNYjHY15BIs-17">
          <mxGeometry width="100" height="100" relative="1" as="geometry">
            <Array as="points" />
          </mxGeometry>
        </mxCell>
        <mxCell id="1jA0onxi-LNYjHY15BIs-32" value="" style="html=1;jettySize=18;whiteSpace=wrap;fontSize=13;strokeColor=#050505;strokeWidth=10;rounded=1;arcSize=12;edgeStyle=orthogonalEdgeStyle;startArrow=none;endArrow=block;endFill=1;exitX=0.994;exitY=1;exitPerimeter=0;entryX=-0.005;entryY=0.5;entryPerimeter=0;lucidId=TART6_8zkuHI;" edge="1" parent="1" source="1jA0onxi-LNYjHY15BIs-20" target="1jA0onxi-LNYjHY15BIs-24">
          <mxGeometry width="100" height="100" relative="1" as="geometry">
            <Array as="points">
              <mxPoint x="960" y="300" />
              <mxPoint x="960" y="300" />
            </Array>
          </mxGeometry>
        </mxCell>
        <mxCell id="1jA0onxi-LNYjHY15BIs-33" value="" style="html=1;overflow=block;blockSpacing=1;whiteSpace=wrap;fontSize=13;align=center;spacing=9;strokeColor=#5e5e5e;strokeOpacity=100;rounded=1;absoluteArcSize=1;arcSize=9;strokeWidth=3;lucidId=uBRT4KdpWdFJ;" vertex="1" parent="1">
          <mxGeometry x="1400" y="-30" width="285" height="180" as="geometry" />
        </mxCell>
        <mxCell id="1jA0onxi-LNYjHY15BIs-34" value="17" style="html=1;overflow=block;blockSpacing=1;whiteSpace=wrap;fontSize=23.3;fontColor=#333333;fontStyle=1;align=center;spacing=3.8;strokeColor=#5e5e5e;strokeOpacity=100;rounded=1;absoluteArcSize=1;arcSize=9;strokeWidth=3;lucidId=uBRTCBha4Ch3;" vertex="1" parent="1">
          <mxGeometry x="1400" y="-30" width="90" height="90" as="geometry" />
        </mxCell>
        <mxCell id="1jA0onxi-LNYjHY15BIs-35" value="&lt;font style=&quot;font-size: 23px;&quot;&gt;&lt;b&gt;17&lt;/b&gt;&lt;/font&gt;" style="html=1;overflow=block;blockSpacing=1;whiteSpace=wrap;fontSize=13;align=center;spacing=3.8;strokeColor=#5e5e5e;strokeOpacity=100;rounded=1;absoluteArcSize=1;arcSize=9;strokeWidth=3;lucidId=uBRTDxuheoRq;" vertex="1" parent="1">
          <mxGeometry x="1400" y="60" width="90" height="90" as="geometry" />
        </mxCell>
        <mxCell id="1jA0onxi-LNYjHY15BIs-36" value="20" style="html=1;overflow=block;blockSpacing=1;whiteSpace=wrap;fontSize=23.3;fontColor=#333333;fontStyle=1;align=center;spacing=3.8;strokeColor=#5e5e5e;strokeOpacity=100;rounded=1;absoluteArcSize=1;arcSize=9;strokeWidth=3;lucidId=uBRT~E3eFCxZ;" vertex="1" parent="1">
          <mxGeometry x="1595" y="-30" width="90" height="90" as="geometry" />
        </mxCell>
        <mxCell id="1jA0onxi-LNYjHY15BIs-37" value="&lt;font style=&quot;font-size: 23px;&quot;&gt;&lt;b&gt;20&lt;/b&gt;&lt;/font&gt;" style="html=1;overflow=block;blockSpacing=1;whiteSpace=wrap;fontSize=13;align=center;spacing=3.8;strokeColor=#5e5e5e;strokeOpacity=100;rounded=1;absoluteArcSize=1;arcSize=9;strokeWidth=3;lucidId=uBRTGc5oTUye;" vertex="1" parent="1">
          <mxGeometry x="1595" y="60" width="90" height="90" as="geometry" />
        </mxCell>
        <mxCell id="1jA0onxi-LNYjHY15BIs-38" value="3" style="html=1;overflow=block;blockSpacing=1;whiteSpace=wrap;fontSize=23.3;fontColor=#333333;fontStyle=1;align=center;spacing=3.8;strokeOpacity=0;fillOpacity=0;rounded=1;absoluteArcSize=1;arcSize=9;fillColor=#ffffff;strokeWidth=2.3;lucidId=uBRTRFf5I9ww;" vertex="1" parent="1">
          <mxGeometry x="1490" y="75" width="105" height="53" as="geometry" />
        </mxCell>
        <mxCell id="1jA0onxi-LNYjHY15BIs-39" value="&lt;font style=&quot;font-size: 32px;&quot;&gt;F&lt;/font&gt;" style="html=1;overflow=block;blockSpacing=1;whiteSpace=wrap;fontSize=23.3;fontColor=#333333;fontStyle=1;align=center;spacing=3.8;strokeOpacity=0;fillOpacity=0;rounded=1;absoluteArcSize=1;arcSize=9;fillColor=#ffffff;strokeWidth=2.3;lucidId=uBRTtDppB0b5;" vertex="1" parent="1">
          <mxGeometry x="1498" y="-4" width="90" height="64" as="geometry" />
        </mxCell>
        <mxCell id="1jA0onxi-LNYjHY15BIs-40" value="" style="html=1;jettySize=18;whiteSpace=wrap;fontSize=13;strokeColor=#5E5E5E;strokeWidth=2.3;rounded=1;arcSize=12;edgeStyle=orthogonalEdgeStyle;startArrow=none;endArrow=block;endFill=1;exitX=1.005;exitY=0.5;exitPerimeter=0;entryX=-0.005;entryY=0.5;entryPerimeter=0;lucidId=.BRTGT~pZ0Bq;" edge="1" parent="1" source="1jA0onxi-LNYjHY15BIs-2" target="1jA0onxi-LNYjHY15BIs-33">
          <mxGeometry width="100" height="100" relative="1" as="geometry">
            <Array as="points" />
          </mxGeometry>
        </mxCell>
        <mxCell id="1jA0onxi-LNYjHY15BIs-41" value="" style="html=1;overflow=block;blockSpacing=1;whiteSpace=wrap;fontSize=13;align=center;spacing=9;strokeColor=#5e5e5e;strokeOpacity=100;rounded=1;absoluteArcSize=1;arcSize=9;strokeWidth=3;lucidId=2ERTQmXz96-D;" vertex="1" parent="1">
          <mxGeometry x="390" y="450" width="285" height="180" as="geometry" />
        </mxCell>
        <mxCell id="1jA0onxi-LNYjHY15BIs-42" value="0" style="html=1;overflow=block;blockSpacing=1;whiteSpace=wrap;fontSize=23.3;fontColor=#333333;fontStyle=1;align=center;spacing=3.8;strokeColor=#5e5e5e;strokeOpacity=100;rounded=1;absoluteArcSize=1;arcSize=9;strokeWidth=3;lucidId=2ERTfnDkPLi3;" vertex="1" parent="1">
          <mxGeometry x="390" y="450" width="90" height="90" as="geometry" />
        </mxCell>
        <mxCell id="1jA0onxi-LNYjHY15BIs-43" value="&lt;font style=&quot;font-size: 23px;&quot;&gt;&lt;b&gt;10&lt;/b&gt;&lt;/font&gt;" style="html=1;overflow=block;blockSpacing=1;whiteSpace=wrap;fontSize=13;align=center;spacing=3.8;strokeColor=#5e5e5e;strokeOpacity=100;rounded=1;absoluteArcSize=1;arcSize=9;strokeWidth=3;lucidId=2ERTnLRVnL5r;" vertex="1" parent="1">
          <mxGeometry x="390" y="540" width="90" height="90" as="geometry" />
        </mxCell>
        <mxCell id="1jA0onxi-LNYjHY15BIs-44" value="10" style="html=1;overflow=block;blockSpacing=1;whiteSpace=wrap;fontSize=23.3;fontColor=#333333;fontStyle=1;align=center;spacing=3.8;strokeColor=#5e5e5e;strokeOpacity=100;rounded=1;absoluteArcSize=1;arcSize=9;strokeWidth=3;lucidId=2ERTx9MzTE9i;" vertex="1" parent="1">
          <mxGeometry x="585" y="450" width="90" height="90" as="geometry" />
        </mxCell>
        <mxCell id="1jA0onxi-LNYjHY15BIs-45" value="&lt;font style=&quot;font-size: 23px;&quot;&gt;&lt;b&gt;20&lt;/b&gt;&lt;/font&gt;" style="html=1;overflow=block;blockSpacing=1;whiteSpace=wrap;fontSize=13;align=center;spacing=3.8;strokeColor=#5e5e5e;strokeOpacity=100;rounded=1;absoluteArcSize=1;arcSize=9;strokeWidth=3;lucidId=2ERTV8f-ri4m;" vertex="1" parent="1">
          <mxGeometry x="585" y="540" width="90" height="90" as="geometry" />
        </mxCell>
        <mxCell id="1jA0onxi-LNYjHY15BIs-46" value="10" style="html=1;overflow=block;blockSpacing=1;whiteSpace=wrap;fontSize=23.3;fontColor=#333333;fontStyle=1;align=center;spacing=3.8;strokeOpacity=0;fillOpacity=0;rounded=1;absoluteArcSize=1;arcSize=9;fillColor=#ffffff;strokeWidth=2.3;lucidId=2ERTz-OlqhhO;" vertex="1" parent="1">
          <mxGeometry x="480" y="555" width="105" height="53" as="geometry" />
        </mxCell>
        <mxCell id="1jA0onxi-LNYjHY15BIs-47" value="&lt;font style=&quot;font-size: 32px;&quot;&gt;B&lt;/font&gt;" style="html=1;overflow=block;blockSpacing=1;whiteSpace=wrap;fontSize=23.3;fontColor=#333333;fontStyle=1;align=center;spacing=3.8;strokeOpacity=0;fillOpacity=0;rounded=1;absoluteArcSize=1;arcSize=9;fillColor=#ffffff;strokeWidth=2.3;lucidId=2ERT8-09T..1;" vertex="1" parent="1">
          <mxGeometry x="487" y="476" width="90" height="64" as="geometry" />
        </mxCell>
        <mxCell id="1jA0onxi-LNYjHY15BIs-48" value="" style="html=1;jettySize=18;whiteSpace=wrap;fontSize=13;strokeColor=#000000;strokeWidth=10;rounded=1;arcSize=12;edgeStyle=orthogonalEdgeStyle;startArrow=none;endArrow=block;endFill=1;exitX=0.997;exitY=0.5;exitPerimeter=0;entryX=-0.005;entryY=0.5;entryPerimeter=0;lucidId=.ERTF4FRFy_P;" edge="1" parent="1" source="1jA0onxi-LNYjHY15BIs-1" target="1jA0onxi-LNYjHY15BIs-9">
          <mxGeometry width="100" height="100" relative="1" as="geometry">
            <Array as="points" />
          </mxGeometry>
        </mxCell>
        <mxCell id="1jA0onxi-LNYjHY15BIs-49" value="" style="html=1;jettySize=18;whiteSpace=wrap;fontSize=13;strokeColor=#5E5E5E;strokeWidth=2.3;rounded=1;arcSize=12;edgeStyle=orthogonalEdgeStyle;startArrow=none;endArrow=block;endFill=1;entryX=-0.005;entryY=0.5;entryPerimeter=0;lucidId=iFRTqNajkdzn;" edge="1" parent="1" target="1jA0onxi-LNYjHY15BIs-41">
          <mxGeometry width="100" height="100" relative="1" as="geometry">
            <Array as="points">
              <mxPoint x="180" y="540" />
            </Array>
            <mxPoint x="180" y="300" as="sourcePoint" />
          </mxGeometry>
        </mxCell>
        <mxCell id="1jA0onxi-LNYjHY15BIs-50" value="" style="html=1;jettySize=18;whiteSpace=wrap;fontSize=13;strokeColor=#080808;strokeWidth=10;rounded=1;arcSize=12;edgeStyle=orthogonalEdgeStyle;startArrow=none;endArrow=block;endFill=1;exitX=1.005;exitY=0.5;exitPerimeter=0;entryX=-0.005;entryY=0.5;entryPerimeter=0;lucidId=ZFRTxtF5FFh7;" edge="1" parent="1" source="1jA0onxi-LNYjHY15BIs-24" target="1jA0onxi-LNYjHY15BIs-33">
          <mxGeometry width="100" height="100" relative="1" as="geometry">
            <Array as="points">
              <mxPoint x="1340" y="300" />
              <mxPoint x="1340" y="60" />
            </Array>
          </mxGeometry>
        </mxCell>
        <mxCell id="1jA0onxi-LNYjHY15BIs-51" value="" style="html=1;jettySize=18;whiteSpace=wrap;fontSize=13;strokeColor=#050505;strokeWidth=10;rounded=0;arcSize=12;edgeStyle=orthogonalEdgeStyle;startArrow=none;endArrow=block;endFill=1;exitX=1.011;exitY=0.976;exitPerimeter=0;entryX=-0.005;entryY=0.5;entryPerimeter=0;lucidId=dGRTi9PgwTOv;" edge="1" parent="1" source="1jA0onxi-LNYjHY15BIs-36" target="1jA0onxi-LNYjHY15BIs-52">
          <mxGeometry width="100" height="100" relative="1" as="geometry">
            <Array as="points">
              <mxPoint x="1700" y="58" />
              <mxPoint x="1700" y="540" />
            </Array>
          </mxGeometry>
        </mxCell>
        <mxCell id="1jA0onxi-LNYjHY15BIs-52" value="" style="html=1;overflow=block;blockSpacing=1;whiteSpace=wrap;fontSize=13;align=center;spacing=9;strokeColor=#5e5e5e;strokeOpacity=100;rounded=1;absoluteArcSize=1;arcSize=9;strokeWidth=3;lucidId=rGRTGnR4WyiP;" vertex="1" parent="1">
          <mxGeometry x="1740" y="450" width="285" height="180" as="geometry" />
        </mxCell>
        <mxCell id="1jA0onxi-LNYjHY15BIs-53" value="20" style="html=1;overflow=block;blockSpacing=1;whiteSpace=wrap;fontSize=23.3;fontColor=#333333;fontStyle=1;align=center;spacing=3.8;strokeColor=#5e5e5e;strokeOpacity=100;rounded=1;absoluteArcSize=1;arcSize=9;strokeWidth=3;lucidId=rGRT0TPLAfWL;" vertex="1" parent="1">
          <mxGeometry x="1740" y="450" width="90" height="90" as="geometry" />
        </mxCell>
        <mxCell id="1jA0onxi-LNYjHY15BIs-54" value="&lt;font style=&quot;font-size: 23px;&quot;&gt;&lt;b&gt;20&lt;/b&gt;&lt;/font&gt;" style="html=1;overflow=block;blockSpacing=1;whiteSpace=wrap;fontSize=13;align=center;spacing=3.8;strokeColor=#5e5e5e;strokeOpacity=100;rounded=1;absoluteArcSize=1;arcSize=9;strokeWidth=3;lucidId=rGRTEQNN2Po0;" vertex="1" parent="1">
          <mxGeometry x="1740" y="540" width="90" height="90" as="geometry" />
        </mxCell>
        <mxCell id="1jA0onxi-LNYjHY15BIs-55" value="24" style="html=1;overflow=block;blockSpacing=1;whiteSpace=wrap;fontSize=23.3;fontColor=#333333;fontStyle=1;align=center;spacing=3.8;strokeColor=#5e5e5e;strokeOpacity=100;rounded=1;absoluteArcSize=1;arcSize=9;strokeWidth=3;lucidId=rGRTZUoePzDH;" vertex="1" parent="1">
          <mxGeometry x="1935" y="450" width="90" height="90" as="geometry" />
        </mxCell>
        <mxCell id="1jA0onxi-LNYjHY15BIs-56" value="&lt;font style=&quot;font-size: 23px;&quot;&gt;&lt;b&gt;24&lt;/b&gt;&lt;/font&gt;" style="html=1;overflow=block;blockSpacing=1;whiteSpace=wrap;fontSize=13;align=center;spacing=3.8;strokeColor=#5e5e5e;strokeOpacity=100;rounded=1;absoluteArcSize=1;arcSize=9;strokeWidth=3;lucidId=rGRTJUYSi73s;" vertex="1" parent="1">
          <mxGeometry x="1935" y="540" width="90" height="90" as="geometry" />
        </mxCell>
        <mxCell id="1jA0onxi-LNYjHY15BIs-57" value="4" style="html=1;overflow=block;blockSpacing=1;whiteSpace=wrap;fontSize=23.3;fontColor=#333333;fontStyle=1;align=center;spacing=3.8;strokeOpacity=0;fillOpacity=0;rounded=1;absoluteArcSize=1;arcSize=9;fillColor=#ffffff;strokeWidth=2.3;lucidId=rGRTImpZKSvA;" vertex="1" parent="1">
          <mxGeometry x="1830" y="555" width="105" height="53" as="geometry" />
        </mxCell>
        <mxCell id="1jA0onxi-LNYjHY15BIs-58" value="&lt;font style=&quot;font-size: 32px;&quot;&gt;G&lt;/font&gt;" style="html=1;overflow=block;blockSpacing=1;whiteSpace=wrap;fontSize=23.3;fontColor=#333333;fontStyle=1;align=center;spacing=3.8;strokeOpacity=0;fillOpacity=0;rounded=1;absoluteArcSize=1;arcSize=9;fillColor=#ffffff;strokeWidth=2.3;lucidId=rGRTRjvnVTL.;" vertex="1" parent="1">
          <mxGeometry x="1838" y="476" width="90" height="64" as="geometry" />
        </mxCell>
        <mxCell id="1jA0onxi-LNYjHY15BIs-59" value="" style="html=1;jettySize=18;whiteSpace=wrap;fontSize=13;strokeColor=#5E5E5E;strokeWidth=2.3;rounded=1;arcSize=12;edgeStyle=orthogonalEdgeStyle;startArrow=none;endArrow=block;endFill=1;exitX=1.006;exitY=0.986;exitPerimeter=0;entryX=-0.005;entryY=0.493;entryPerimeter=0;lucidId=XGRTw9NKQkYS;" edge="1" parent="1" source="1jA0onxi-LNYjHY15BIs-44" target="1jA0onxi-LNYjHY15BIs-52">
          <mxGeometry width="100" height="100" relative="1" as="geometry">
            <Array as="points" />
          </mxGeometry>
        </mxCell>
        <mxCell id="1jA0onxi-LNYjHY15BIs-64" value="" style="html=1;overflow=block;blockSpacing=1;whiteSpace=wrap;fontSize=13;align=center;spacing=9;strokeColor=#5e5e5e;strokeOpacity=100;rounded=1;absoluteArcSize=1;arcSize=9;strokeWidth=3;lucidId=rGRTGnR4WyiP;" vertex="1" parent="1">
          <mxGeometry x="1925" y="-30" width="285" height="180" as="geometry" />
        </mxCell>
        <mxCell id="1jA0onxi-LNYjHY15BIs-65" value="20" style="html=1;overflow=block;blockSpacing=1;whiteSpace=wrap;fontSize=23.3;fontColor=#333333;fontStyle=1;align=center;spacing=3.8;strokeColor=#5e5e5e;strokeOpacity=100;rounded=1;absoluteArcSize=1;arcSize=9;strokeWidth=3;lucidId=rGRT0TPLAfWL;" vertex="1" parent="1">
          <mxGeometry x="1925" y="-30" width="90" height="90" as="geometry" />
        </mxCell>
        <mxCell id="1jA0onxi-LNYjHY15BIs-66" value="&lt;font style=&quot;font-size: 23px;&quot;&gt;&lt;b&gt;21&lt;/b&gt;&lt;/font&gt;" style="html=1;overflow=block;blockSpacing=1;whiteSpace=wrap;fontSize=13;align=center;spacing=3.8;strokeColor=#5e5e5e;strokeOpacity=100;rounded=1;absoluteArcSize=1;arcSize=9;strokeWidth=3;lucidId=rGRTEQNN2Po0;" vertex="1" parent="1">
          <mxGeometry x="1925" y="60" width="90" height="90" as="geometry" />
        </mxCell>
        <mxCell id="1jA0onxi-LNYjHY15BIs-67" value="28" style="html=1;overflow=block;blockSpacing=1;whiteSpace=wrap;fontSize=23.3;fontColor=#333333;fontStyle=1;align=center;spacing=3.8;strokeColor=#5e5e5e;strokeOpacity=100;rounded=1;absoluteArcSize=1;arcSize=9;strokeWidth=3;lucidId=rGRTZUoePzDH;" vertex="1" parent="1">
          <mxGeometry x="2120" y="-30" width="90" height="90" as="geometry" />
        </mxCell>
        <mxCell id="1jA0onxi-LNYjHY15BIs-68" value="&lt;font style=&quot;font-size: 23px;&quot;&gt;&lt;b&gt;29&lt;/b&gt;&lt;/font&gt;" style="html=1;overflow=block;blockSpacing=1;whiteSpace=wrap;fontSize=13;align=center;spacing=3.8;strokeColor=#5e5e5e;strokeOpacity=100;rounded=1;absoluteArcSize=1;arcSize=9;strokeWidth=3;lucidId=rGRTJUYSi73s;" vertex="1" parent="1">
          <mxGeometry x="2120" y="60" width="90" height="90" as="geometry" />
        </mxCell>
        <mxCell id="1jA0onxi-LNYjHY15BIs-69" value="8" style="html=1;overflow=block;blockSpacing=1;whiteSpace=wrap;fontSize=23.3;fontColor=#333333;fontStyle=1;align=center;spacing=3.8;strokeOpacity=0;fillOpacity=0;rounded=1;absoluteArcSize=1;arcSize=9;fillColor=#ffffff;strokeWidth=2.3;lucidId=rGRTImpZKSvA;" vertex="1" parent="1">
          <mxGeometry x="2015" y="75" width="105" height="53" as="geometry" />
        </mxCell>
        <mxCell id="1jA0onxi-LNYjHY15BIs-70" value="&lt;font style=&quot;font-size: 32px;&quot;&gt;H&lt;/font&gt;" style="html=1;overflow=block;blockSpacing=1;whiteSpace=wrap;fontSize=23.3;fontColor=#333333;fontStyle=1;align=center;spacing=3.8;strokeOpacity=0;fillOpacity=0;rounded=1;absoluteArcSize=1;arcSize=9;fillColor=#ffffff;strokeWidth=2.3;lucidId=rGRTRjvnVTL.;" vertex="1" parent="1">
          <mxGeometry x="2023" y="-4" width="90" height="64" as="geometry" />
        </mxCell>
        <mxCell id="1jA0onxi-LNYjHY15BIs-73" value="" style="endArrow=classic;html=1;rounded=0;exitX=1;exitY=1;exitDx=0;exitDy=0;entryX=0;entryY=1;entryDx=0;entryDy=0;strokeWidth=2.3;" edge="1" parent="1" source="1jA0onxi-LNYjHY15BIs-36" target="1jA0onxi-LNYjHY15BIs-65">
          <mxGeometry width="50" height="50" relative="1" as="geometry">
            <mxPoint x="1820" y="-60" as="sourcePoint" />
            <mxPoint x="1870" y="-110" as="targetPoint" />
          </mxGeometry>
        </mxCell>
        <mxCell id="1jA0onxi-LNYjHY15BIs-74" value="" style="html=1;overflow=block;blockSpacing=1;whiteSpace=wrap;fontSize=13;align=center;spacing=9;strokeColor=#5e5e5e;strokeOpacity=100;rounded=1;absoluteArcSize=1;arcSize=9;strokeWidth=3;lucidId=rGRTGnR4WyiP;" vertex="1" parent="1">
          <mxGeometry x="2090" y="450" width="285" height="180" as="geometry" />
        </mxCell>
        <mxCell id="1jA0onxi-LNYjHY15BIs-75" value="24" style="html=1;overflow=block;blockSpacing=1;whiteSpace=wrap;fontSize=23.3;fontColor=#333333;fontStyle=1;align=center;spacing=3.8;strokeColor=#5e5e5e;strokeOpacity=100;rounded=1;absoluteArcSize=1;arcSize=9;strokeWidth=3;lucidId=rGRT0TPLAfWL;" vertex="1" parent="1">
          <mxGeometry x="2090" y="450" width="90" height="90" as="geometry" />
        </mxCell>
        <mxCell id="1jA0onxi-LNYjHY15BIs-76" value="&lt;font style=&quot;font-size: 23px;&quot;&gt;&lt;b&gt;24&lt;/b&gt;&lt;/font&gt;" style="html=1;overflow=block;blockSpacing=1;whiteSpace=wrap;fontSize=13;align=center;spacing=3.8;strokeColor=#5e5e5e;strokeOpacity=100;rounded=1;absoluteArcSize=1;arcSize=9;strokeWidth=3;lucidId=rGRTEQNN2Po0;" vertex="1" parent="1">
          <mxGeometry x="2090" y="540" width="90" height="90" as="geometry" />
        </mxCell>
        <mxCell id="1jA0onxi-LNYjHY15BIs-77" value="29" style="html=1;overflow=block;blockSpacing=1;whiteSpace=wrap;fontSize=23.3;fontColor=#333333;fontStyle=1;align=center;spacing=3.8;strokeColor=#5e5e5e;strokeOpacity=100;rounded=1;absoluteArcSize=1;arcSize=9;strokeWidth=3;lucidId=rGRTZUoePzDH;" vertex="1" parent="1">
          <mxGeometry x="2285" y="450" width="90" height="90" as="geometry" />
        </mxCell>
        <mxCell id="1jA0onxi-LNYjHY15BIs-78" value="&lt;font style=&quot;font-size: 23px;&quot;&gt;&lt;b&gt;29&lt;/b&gt;&lt;/font&gt;" style="html=1;overflow=block;blockSpacing=1;whiteSpace=wrap;fontSize=13;align=center;spacing=3.8;strokeColor=#5e5e5e;strokeOpacity=100;rounded=1;absoluteArcSize=1;arcSize=9;strokeWidth=3;lucidId=rGRTJUYSi73s;" vertex="1" parent="1">
          <mxGeometry x="2285" y="540" width="90" height="90" as="geometry" />
        </mxCell>
        <mxCell id="1jA0onxi-LNYjHY15BIs-79" value="5" style="html=1;overflow=block;blockSpacing=1;whiteSpace=wrap;fontSize=23.3;fontColor=#333333;fontStyle=1;align=center;spacing=3.8;strokeOpacity=0;fillOpacity=0;rounded=1;absoluteArcSize=1;arcSize=9;fillColor=#ffffff;strokeWidth=2.3;lucidId=rGRTImpZKSvA;" vertex="1" parent="1">
          <mxGeometry x="2180" y="555" width="105" height="53" as="geometry" />
        </mxCell>
        <mxCell id="1jA0onxi-LNYjHY15BIs-80" value="&lt;font style=&quot;font-size: 32px;&quot;&gt;I&lt;/font&gt;" style="html=1;overflow=block;blockSpacing=1;whiteSpace=wrap;fontSize=23.3;fontColor=#333333;fontStyle=1;align=center;spacing=3.8;strokeOpacity=0;fillOpacity=0;rounded=1;absoluteArcSize=1;arcSize=9;fillColor=#ffffff;strokeWidth=2.3;lucidId=rGRTRjvnVTL.;" vertex="1" parent="1">
          <mxGeometry x="2188" y="476" width="90" height="64" as="geometry" />
        </mxCell>
        <mxCell id="1jA0onxi-LNYjHY15BIs-81" value="" style="endArrow=classic;html=1;rounded=0;exitX=1;exitY=1;exitDx=0;exitDy=0;entryX=0;entryY=1;entryDx=0;entryDy=0;strokeWidth=10;" edge="1" parent="1" source="1jA0onxi-LNYjHY15BIs-55" target="1jA0onxi-LNYjHY15BIs-75">
          <mxGeometry width="50" height="50" relative="1" as="geometry">
            <mxPoint x="2191" y="340.39" as="sourcePoint" />
            <mxPoint x="2391" y="340.39" as="targetPoint" />
          </mxGeometry>
        </mxCell>
        <mxCell id="1jA0onxi-LNYjHY15BIs-82" value="" style="html=1;overflow=block;blockSpacing=1;whiteSpace=wrap;fontSize=13;align=center;spacing=9;strokeColor=#5e5e5e;strokeOpacity=100;rounded=1;absoluteArcSize=1;arcSize=9;strokeWidth=3;lucidId=rGRTGnR4WyiP;" vertex="1" parent="1">
          <mxGeometry x="2570" y="165" width="285" height="180" as="geometry" />
        </mxCell>
        <mxCell id="1jA0onxi-LNYjHY15BIs-83" value="29" style="html=1;overflow=block;blockSpacing=1;whiteSpace=wrap;fontSize=23.3;fontColor=#333333;fontStyle=1;align=center;spacing=3.8;strokeColor=#5e5e5e;strokeOpacity=100;rounded=1;absoluteArcSize=1;arcSize=9;strokeWidth=3;lucidId=rGRT0TPLAfWL;" vertex="1" parent="1">
          <mxGeometry x="2570" y="165" width="90" height="90" as="geometry" />
        </mxCell>
        <mxCell id="1jA0onxi-LNYjHY15BIs-84" value="&lt;b&gt;&lt;font style=&quot;font-size: 23px;&quot;&gt;29&lt;/font&gt;&lt;/b&gt;" style="html=1;overflow=block;blockSpacing=1;whiteSpace=wrap;fontSize=13;align=center;spacing=3.8;strokeColor=#5e5e5e;strokeOpacity=100;rounded=1;absoluteArcSize=1;arcSize=9;strokeWidth=3;lucidId=rGRTEQNN2Po0;" vertex="1" parent="1">
          <mxGeometry x="2570" y="255" width="90" height="90" as="geometry" />
        </mxCell>
        <mxCell id="1jA0onxi-LNYjHY15BIs-85" value="34" style="html=1;overflow=block;blockSpacing=1;whiteSpace=wrap;fontSize=23.3;fontColor=#333333;fontStyle=1;align=center;spacing=3.8;strokeColor=#5e5e5e;strokeOpacity=100;rounded=1;absoluteArcSize=1;arcSize=9;strokeWidth=3;lucidId=rGRTZUoePzDH;" vertex="1" parent="1">
          <mxGeometry x="2765" y="165" width="90" height="90" as="geometry" />
        </mxCell>
        <mxCell id="1jA0onxi-LNYjHY15BIs-86" value="&lt;font style=&quot;font-size: 23px;&quot;&gt;&lt;b&gt;34&lt;/b&gt;&lt;/font&gt;" style="html=1;overflow=block;blockSpacing=1;whiteSpace=wrap;fontSize=13;align=center;spacing=3.8;strokeColor=#5e5e5e;strokeOpacity=100;rounded=1;absoluteArcSize=1;arcSize=9;strokeWidth=3;lucidId=rGRTJUYSi73s;" vertex="1" parent="1">
          <mxGeometry x="2765" y="255" width="90" height="90" as="geometry" />
        </mxCell>
        <mxCell id="1jA0onxi-LNYjHY15BIs-87" value="5" style="html=1;overflow=block;blockSpacing=1;whiteSpace=wrap;fontSize=23.3;fontColor=#333333;fontStyle=1;align=center;spacing=3.8;strokeOpacity=0;fillOpacity=0;rounded=1;absoluteArcSize=1;arcSize=9;fillColor=#ffffff;strokeWidth=2.3;lucidId=rGRTImpZKSvA;" vertex="1" parent="1">
          <mxGeometry x="2660" y="270" width="105" height="53" as="geometry" />
        </mxCell>
        <mxCell id="1jA0onxi-LNYjHY15BIs-88" value="&lt;font style=&quot;font-size: 32px;&quot;&gt;J&lt;/font&gt;" style="html=1;overflow=block;blockSpacing=1;whiteSpace=wrap;fontSize=23.3;fontColor=#333333;fontStyle=1;align=center;spacing=3.8;strokeOpacity=0;fillOpacity=0;rounded=1;absoluteArcSize=1;arcSize=9;fillColor=#ffffff;strokeWidth=2.3;lucidId=rGRTRjvnVTL.;" vertex="1" parent="1">
          <mxGeometry x="2668" y="191" width="90" height="64" as="geometry" />
        </mxCell>
        <mxCell id="1jA0onxi-LNYjHY15BIs-89" value="" style="endArrow=classic;html=1;rounded=0;exitX=1;exitY=0;exitDx=0;exitDy=0;entryX=0;entryY=1;entryDx=0;entryDy=0;strokeWidth=2.3;" edge="1" parent="1" source="1jA0onxi-LNYjHY15BIs-68" target="1jA0onxi-LNYjHY15BIs-83">
          <mxGeometry width="50" height="50" relative="1" as="geometry">
            <mxPoint x="2340" y="87.77999999999997" as="sourcePoint" />
            <mxPoint x="2465" y="87.77999999999997" as="targetPoint" />
            <Array as="points">
              <mxPoint x="2440" y="60" />
              <mxPoint x="2440" y="255" />
            </Array>
          </mxGeometry>
        </mxCell>
        <mxCell id="1jA0onxi-LNYjHY15BIs-91" value="" style="endArrow=classic;html=1;rounded=0;exitX=1;exitY=0;exitDx=0;exitDy=0;entryX=0;entryY=0;entryDx=0;entryDy=0;strokeWidth=10;" edge="1" parent="1" source="1jA0onxi-LNYjHY15BIs-78" target="1jA0onxi-LNYjHY15BIs-84">
          <mxGeometry width="50" height="50" relative="1" as="geometry">
            <mxPoint x="2552.5" y="506.89" as="sourcePoint" />
            <mxPoint x="2677.5" y="506.89" as="targetPoint" />
            <Array as="points">
              <mxPoint x="2440" y="540" />
              <mxPoint x="2440" y="255" />
            </Array>
          </mxGeometry>
        </mxCell>
        <mxCell id="1jA0onxi-LNYjHY15BIs-92" value="&lt;b&gt;&lt;font style=&quot;font-size: 29px;&quot;&gt;END&lt;/font&gt;&lt;/b&gt;" style="html=1;overflow=block;blockSpacing=1;whiteSpace=wrap;rhombus;fontSize=16.7;fontColor=#333333;align=center;spacing=3.8;strokeColor=#000000;strokeOpacity=100;rounded=1;absoluteArcSize=1;arcSize=9;strokeWidth=7;lucidId=apRTezGJ.Ge_;" vertex="1" parent="1">
          <mxGeometry x="2990" y="165" width="285" height="180" as="geometry" />
        </mxCell>
        <mxCell id="1jA0onxi-LNYjHY15BIs-93" value="" style="endArrow=classic;html=1;rounded=0;exitX=1;exitY=0;exitDx=0;exitDy=0;entryX=0;entryY=0.5;entryDx=0;entryDy=0;strokeWidth=10;" edge="1" parent="1" source="1jA0onxi-LNYjHY15BIs-86" target="1jA0onxi-LNYjHY15BIs-92">
          <mxGeometry width="50" height="50" relative="1" as="geometry">
            <mxPoint x="2940" y="343.89" as="sourcePoint" />
            <mxPoint x="3005" y="343.89" as="targetPoint" />
          </mxGeometry>
        </mxCell>
        <mxCell id="1jA0onxi-LNYjHY15BIs-94" value="&lt;font size=&quot;1&quot; style=&quot;&quot;&gt;&lt;b style=&quot;font-size: 28px;&quot;&gt;H (A) = 5&lt;/b&gt;&lt;/font&gt;" style="text;html=1;strokeColor=none;fillColor=none;align=center;verticalAlign=middle;whiteSpace=wrap;rounded=0;" vertex="1" parent="1">
          <mxGeometry x="390" y="-80" width="130" height="40" as="geometry" />
        </mxCell>
        <mxCell id="1jA0onxi-LNYjHY15BIs-95" value="&lt;b style=&quot;border-color: var(--border-color); font-size: 28px;&quot;&gt;H (C) = 0&lt;/b&gt;" style="text;html=1;align=center;verticalAlign=middle;resizable=0;points=[];autosize=1;strokeColor=none;fillColor=none;" vertex="1" parent="1">
          <mxGeometry x="270" y="160" width="140" height="50" as="geometry" />
        </mxCell>
        <mxCell id="1jA0onxi-LNYjHY15BIs-96" value="&lt;b style=&quot;border-color: var(--border-color); font-size: 28px;&quot;&gt;H (D) = 0&lt;/b&gt;" style="text;html=1;align=center;verticalAlign=middle;resizable=0;points=[];autosize=1;strokeColor=none;fillColor=none;" vertex="1" parent="1">
          <mxGeometry x="645" y="160" width="140" height="50" as="geometry" />
        </mxCell>
        <mxCell id="1jA0onxi-LNYjHY15BIs-97" value="&lt;b style=&quot;border-color: var(--border-color); font-size: 28px;&quot;&gt;H (E) = 0&lt;/b&gt;" style="text;html=1;align=center;verticalAlign=middle;resizable=0;points=[];autosize=1;strokeColor=none;fillColor=none;" vertex="1" parent="1">
          <mxGeometry x="1020" y="160" width="140" height="50" as="geometry" />
        </mxCell>
        <mxCell id="1jA0onxi-LNYjHY15BIs-98" value="&lt;b style=&quot;border-color: var(--border-color); font-size: 28px;&quot;&gt;H (F) = 0&lt;/b&gt;" style="text;html=1;align=center;verticalAlign=middle;resizable=0;points=[];autosize=1;strokeColor=none;fillColor=none;" vertex="1" parent="1">
          <mxGeometry x="1405" y="-85" width="130" height="50" as="geometry" />
        </mxCell>
        <mxCell id="1jA0onxi-LNYjHY15BIs-99" value="&lt;b style=&quot;border-color: var(--border-color); font-size: 28px;&quot;&gt;H (G) = 0&lt;/b&gt;" style="text;html=1;align=center;verticalAlign=middle;resizable=0;points=[];autosize=1;strokeColor=none;fillColor=none;" vertex="1" parent="1">
          <mxGeometry x="1740" y="400" width="140" height="50" as="geometry" />
        </mxCell>
        <mxCell id="1jA0onxi-LNYjHY15BIs-100" value="&lt;b style=&quot;border-color: var(--border-color); font-size: 28px;&quot;&gt;H (I) = 0&lt;/b&gt;" style="text;html=1;align=center;verticalAlign=middle;resizable=0;points=[];autosize=1;strokeColor=none;fillColor=none;" vertex="1" parent="1">
          <mxGeometry x="2090" y="400" width="130" height="50" as="geometry" />
        </mxCell>
        <mxCell id="1jA0onxi-LNYjHY15BIs-102" value="&lt;b style=&quot;border-color: var(--border-color); font-size: 28px;&quot;&gt;H (J) = 0&lt;/b&gt;" style="text;html=1;align=center;verticalAlign=middle;resizable=0;points=[];autosize=1;strokeColor=none;fillColor=none;" vertex="1" parent="1">
          <mxGeometry x="2575" y="110" width="130" height="50" as="geometry" />
        </mxCell>
        <mxCell id="1jA0onxi-LNYjHY15BIs-103" value="&lt;b style=&quot;border-color: var(--border-color); font-size: 28px;&quot;&gt;H (H) = 1&lt;/b&gt;" style="text;html=1;align=center;verticalAlign=middle;resizable=0;points=[];autosize=1;strokeColor=none;fillColor=none;" vertex="1" parent="1">
          <mxGeometry x="1925" y="-85" width="140" height="50" as="geometry" />
        </mxCell>
        <mxCell id="1jA0onxi-LNYjHY15BIs-104" value="&lt;b style=&quot;border-color: var(--border-color); font-size: 28px;&quot;&gt;H (B) = 10&lt;/b&gt;" style="text;html=1;align=center;verticalAlign=middle;resizable=0;points=[];autosize=1;strokeColor=none;fillColor=none;" vertex="1" parent="1">
          <mxGeometry x="385" y="400" width="150" height="50" as="geometry" />
        </mxCell>
      </root>
    </mxGraphModel>
  </diagram>
  <diagram id="lWlJTPl58opHcR-r69SH" name="Legend">
    <mxGraphModel dx="1050" dy="566" grid="1" gridSize="10" guides="1" tooltips="1" connect="1" arrows="1" fold="1" page="1" pageScale="1" pageWidth="827" pageHeight="1169" math="0" shadow="0">
      <root>
        <mxCell id="0" />
        <mxCell id="1" parent="0" />
      </root>
    </mxGraphModel>
  </diagram>
</mxfile>
